<?xml version="1.0" encoding="utf-8"?><!DOCTYPE svg PUBLIC "-//W3C//DTD SVG 1.1//EN" "http://www.w3.org/Graphics/SVG/1.1/DTD/svg11.dtd"><svg version="1.1" xmlns="http://www.w3.org/2000/svg" xmlns:xlink="http://www.w3.org/1999/xlink" width="20" height="20" viewBox="0 0 20 20" data-tags="gift"><g fill="#444" transform="scale(0.01953125 0.01953125)"><path d="M759.296 204.8h264.704v307.2h-51.2v512h-921.6v-512h-51.2v-307.2h264.704c-5.655-15.36-8.927-33.099-8.927-51.601 0-84.831 68.769-153.6 153.6-153.6 39.514 0 75.544 14.921 102.761 39.436l-0.138-0.122c27.079-24.392 63.109-39.313 102.623-39.313 84.831 0 153.6 68.769 153.6 153.6 0 18.503-3.272 36.241-9.268 52.669l0.341-1.067zM409.6 512h-256v409.6h256v-409.6zM614.4 512v409.6h256v-409.6h-256zM409.6 307.2h-307.2v102.4h307.2v-102.4zM614.4 307.2v102.4h307.2v-102.4h-307.2zM409.6 204.8c28.277 0 51.2-22.923 51.2-51.2s-22.923-51.2-51.2-51.2v0c-28.277 0-51.2 22.923-51.2 51.2s22.923 51.2 51.2 51.2v0zM614.4 204.8c28.277 0 51.2-22.923 51.2-51.2s-22.923-51.2-51.2-51.2v0c-28.277 0-51.2 22.923-51.2 51.2s22.923 51.2 51.2 51.2v0z" /></g></svg>