<?xml version="1.0" encoding="utf-8"?><!DOCTYPE svg PUBLIC "-//W3C//DTD SVG 1.1//EN" "http://www.w3.org/Graphics/SVG/1.1/DTD/svg11.dtd"><svg version="1.1" xmlns="http://www.w3.org/2000/svg" xmlns:xlink="http://www.w3.org/1999/xlink" width="20" height="20" viewBox="0 0 20 20" data-tags="lock-closed"><g fill="#444" transform="scale(0.01953125 0.01953125)"><path d="M204.8 409.6v-102.4c0-169.662 137.538-307.2 307.2-307.2s307.2 137.538 307.2 307.2v0 102.4h51.2c56.554 0 102.4 45.846 102.4 102.4v0 409.6c0 56.554-45.846 102.4-102.4 102.4v0h-716.8c-56.554 0-102.4-45.846-102.4-102.4v0-409.6c0-56.32 46.080-102.4 102.4-102.4h51.2zM460.8 754.176v116.224h102.4v-116.224c30.824-18.035 51.2-50.978 51.2-88.681 0-56.554-45.846-102.4-102.4-102.4s-102.4 45.846-102.4 102.4c0 37.703 20.376 70.646 50.717 88.419l0.483 0.262zM358.4 307.2v102.4h307.2v-102.4c0-84.831-68.769-153.6-153.6-153.6s-153.6 68.769-153.6 153.6v0z" /></g></svg>